<svg width="139" height="19" viewBox="0 0 139 19" fill="none" xmlns="http://www.w3.org/2000/svg">
<path d="M9.712 16.608L0.952 10.512V9.552L9.712 3.456V4.608L1.984 9.984V10.08L9.712 15.456V16.608ZM19.0866 18.288C18.3346 18.288 17.6466 18.16 17.0226 17.904C16.3986 17.632 15.8626 17.24 15.4146 16.728C14.9666 16.216 14.6146 15.592 14.3586 14.856C14.1186 14.104 13.9986 13.24 13.9986 12.264C13.9986 11.336 14.1426 10.496 14.4306 9.744C14.7346 8.992 15.1346 8.352 15.6306 7.824C16.1426 7.296 16.7186 6.896 17.3586 6.624C18.0146 6.336 18.7026 6.192 19.4226 6.192C20.1586 6.192 20.8306 6.336 21.4386 6.624C22.0466 6.912 22.6386 7.312 23.2146 7.824H23.2626L23.1906 5.496V0.743999H24.2706V18H23.3586L23.2386 16.296H23.1906C22.6786 16.824 22.0706 17.288 21.3666 17.688C20.6626 18.088 19.9026 18.288 19.0866 18.288ZM19.2306 17.352C19.9026 17.352 20.5666 17.168 21.2226 16.8C21.8946 16.432 22.5506 15.912 23.1906 15.24V8.832C22.5346 8.208 21.9026 7.768 21.2946 7.512C20.7026 7.256 20.1026 7.128 19.4946 7.128C18.8866 7.128 18.3186 7.264 17.7906 7.536C17.2626 7.792 16.7986 8.152 16.3986 8.616C15.9986 9.064 15.6866 9.608 15.4626 10.248C15.2386 10.872 15.1266 11.544 15.1266 12.264C15.1266 13.032 15.2146 13.728 15.3906 14.352C15.5826 14.976 15.8546 15.512 16.2066 15.96C16.5586 16.392 16.9906 16.736 17.5026 16.992C18.0146 17.232 18.5906 17.352 19.2306 17.352ZM34.7013 18.288C33.8693 18.288 33.0853 18.152 32.3493 17.88C31.6133 17.608 30.9653 17.216 30.4053 16.704C29.8613 16.176 29.4293 15.536 29.1093 14.784C28.7893 14.032 28.6293 13.184 28.6293 12.24C28.6293 11.312 28.7893 10.472 29.1093 9.72C29.4293 8.968 29.8533 8.336 30.3813 7.824C30.9093 7.296 31.5173 6.896 32.2053 6.624C32.9093 6.336 33.6373 6.192 34.3893 6.192C35.1733 6.192 35.8853 6.32 36.5253 6.576C37.1653 6.816 37.7093 7.168 38.1573 7.632C38.6053 8.08 38.9493 8.632 39.1893 9.288C39.4293 9.944 39.5493 10.688 39.5493 11.52C39.5493 11.664 39.5493 11.816 39.5493 11.976C39.5493 12.12 39.5333 12.264 39.5013 12.408H29.7093C29.7253 13.208 29.8693 13.92 30.1413 14.544C30.4293 15.168 30.8053 15.688 31.2693 16.104C31.7333 16.52 32.2613 16.84 32.8533 17.064C33.4613 17.272 34.1013 17.376 34.7733 17.376C35.5573 17.376 36.2613 17.264 36.8853 17.04C37.5093 16.8 38.0933 16.496 38.6373 16.128L39.0693 16.92C38.5573 17.272 37.9573 17.592 37.2693 17.88C36.5813 18.152 35.7253 18.288 34.7013 18.288ZM34.4133 7.104C33.8533 7.104 33.3093 7.2 32.7812 7.392C32.2693 7.584 31.7973 7.872 31.3653 8.256C30.9493 8.624 30.5973 9.08 30.3092 9.624C30.0213 10.168 29.8373 10.792 29.7573 11.496H38.5893C38.5093 10.008 38.0853 8.904 37.3173 8.184C36.5493 7.464 35.5813 7.104 34.4133 7.104ZM47.8439 18L42.6599 6.48H43.7639L46.9319 13.704C47.4599 14.856 47.9399 15.96 48.3719 17.016H48.4679C48.6919 16.488 48.9159 15.952 49.1399 15.408C49.3639 14.848 49.6039 14.28 49.8599 13.704L53.0519 6.48H54.0839L48.9719 18H47.8439ZM65.4985 18.288C64.3945 18.288 63.5465 17.992 62.9545 17.4C62.3625 16.792 62.0665 15.832 62.0665 14.52V1.656H57.6985V0.743999H63.1225V14.664C63.1225 15.576 63.3385 16.256 63.7705 16.704C64.2025 17.136 64.8265 17.352 65.6425 17.352C66.4105 17.352 67.2025 17.152 68.0185 16.752L68.3545 17.568C67.8585 17.808 67.3945 17.984 66.9625 18.096C66.5465 18.224 66.0585 18.288 65.4985 18.288ZM76.1691 18.288C75.6571 18.288 75.1531 18.224 74.6571 18.096C74.1771 17.968 73.7531 17.776 73.3851 17.52C73.0171 17.264 72.7211 16.936 72.4971 16.536C72.2731 16.136 72.1611 15.664 72.1611 15.12C72.1611 14.48 72.3291 13.92 72.6651 13.44C73.0011 12.96 73.5211 12.544 74.2251 12.192C74.9451 11.84 75.8571 11.552 76.9611 11.328C78.0811 11.104 79.4251 10.92 80.9931 10.776C80.9931 10.296 80.9371 9.84 80.8251 9.408C80.7131 8.96 80.5211 8.568 80.2491 8.232C79.9931 7.896 79.6411 7.632 79.1931 7.44C78.7611 7.232 78.2171 7.128 77.5611 7.128C77.1291 7.128 76.7051 7.176 76.2891 7.272C75.8731 7.368 75.4731 7.496 75.0891 7.656C74.7051 7.816 74.3531 7.992 74.0331 8.184C73.7131 8.36 73.4331 8.528 73.1931 8.688L72.7131 7.896C72.9371 7.736 73.2251 7.56 73.5771 7.368C73.9451 7.16 74.3451 6.976 74.7771 6.816C75.2091 6.64 75.6731 6.496 76.1691 6.384C76.6651 6.256 77.1691 6.192 77.6811 6.192C78.4491 6.192 79.1051 6.312 79.6491 6.552C80.2091 6.776 80.6651 7.088 81.0171 7.488C81.3691 7.888 81.6251 8.36 81.7851 8.904C81.9611 9.432 82.0491 10.008 82.0491 10.632V18H81.1611L81.0411 16.272H80.9931C80.3211 16.8 79.5611 17.272 78.7131 17.688C77.8811 18.088 77.0331 18.288 76.1691 18.288ZM76.3611 17.376C77.8171 17.376 79.3611 16.68 80.9931 15.288V11.592C79.5211 11.72 78.2891 11.888 77.2971 12.096C76.3211 12.304 75.5291 12.552 74.9211 12.84C74.3131 13.128 73.8811 13.456 73.6251 13.824C73.3691 14.192 73.2411 14.608 73.2411 15.072C73.2411 15.488 73.3291 15.84 73.5051 16.128C73.6811 16.416 73.9131 16.656 74.2011 16.848C74.5051 17.024 74.8411 17.16 75.2091 17.256C75.5931 17.336 75.9771 17.376 76.3611 17.376ZM86.0718 18V17.424L95.0958 7.392H87.0318V6.48H96.7038V7.032L87.6798 17.064H96.9678V18H86.0718ZM104.95 18.288C104.438 18.288 103.934 18.224 103.438 18.096C102.958 17.968 102.534 17.776 102.166 17.52C101.798 17.264 101.502 16.936 101.278 16.536C101.054 16.136 100.942 15.664 100.942 15.12C100.942 14.48 101.11 13.92 101.446 13.44C101.782 12.96 102.302 12.544 103.006 12.192C103.726 11.84 104.638 11.552 105.742 11.328C106.862 11.104 108.206 10.92 109.774 10.776C109.774 10.296 109.718 9.84 109.606 9.408C109.494 8.96 109.302 8.568 109.03 8.232C108.774 7.896 108.422 7.632 107.974 7.44C107.542 7.232 106.998 7.128 106.342 7.128C105.91 7.128 105.486 7.176 105.07 7.272C104.654 7.368 104.254 7.496 103.87 7.656C103.486 7.816 103.134 7.992 102.814 8.184C102.494 8.36 102.214 8.528 101.974 8.688L101.494 7.896C101.718 7.736 102.006 7.56 102.358 7.368C102.726 7.16 103.126 6.976 103.558 6.816C103.99 6.64 104.454 6.496 104.95 6.384C105.446 6.256 105.95 6.192 106.462 6.192C107.23 6.192 107.886 6.312 108.43 6.552C108.99 6.776 109.446 7.088 109.798 7.488C110.15 7.888 110.406 8.36 110.566 8.904C110.742 9.432 110.83 10.008 110.83 10.632V18H109.942L109.822 16.272H109.774C109.102 16.8 108.342 17.272 107.494 17.688C106.662 18.088 105.814 18.288 104.95 18.288ZM105.142 17.376C106.598 17.376 108.142 16.68 109.774 15.288V11.592C108.302 11.72 107.07 11.888 106.078 12.096C105.102 12.304 104.31 12.552 103.702 12.84C103.094 13.128 102.662 13.456 102.406 13.824C102.15 14.192 102.022 14.608 102.022 15.072C102.022 15.488 102.11 15.84 102.286 16.128C102.462 16.416 102.694 16.656 102.982 16.848C103.286 17.024 103.622 17.16 103.99 17.256C104.374 17.336 104.758 17.376 105.142 17.376ZM117.037 18V6.48H117.949L118.069 9.312H118.117C118.741 8.4 119.509 7.656 120.421 7.08C121.349 6.488 122.389 6.192 123.541 6.192C123.925 6.192 124.309 6.224 124.693 6.288C125.093 6.352 125.477 6.48 125.845 6.672L125.557 7.608C125.141 7.464 124.781 7.36 124.477 7.296C124.189 7.232 123.821 7.2 123.373 7.2C122.413 7.2 121.493 7.472 120.613 8.016C119.749 8.56 118.917 9.488 118.117 10.8V18H117.037ZM130.204 16.608V15.456L137.932 10.08V9.984L130.204 4.608V3.456L138.964 9.552V10.512L130.204 16.608Z" fill="black"/>
</svg>
